<svg width="99" height="32" viewBox="0 0 99 32" fill="none" xmlns="http://www.w3.org/2000/svg">
<path d="M17.6903 13.4602C17.5795 13.0085 17.4048 12.6122 17.1662 12.2713C16.9276 11.9219 16.6293 11.6278 16.2713 11.3892C15.9219 11.142 15.5128 10.9588 15.044 10.8395C14.5838 10.7116 14.0767 10.6477 13.5227 10.6477C12.3295 10.6477 11.3111 10.9332 10.4673 11.5043C9.6321 12.0753 8.9929 12.8977 8.54972 13.9716C8.11506 15.0455 7.89773 16.3409 7.89773 17.858C7.89773 19.392 8.10653 20.7045 8.52415 21.7955C8.94176 22.8864 9.56392 23.7216 10.3906 24.3011C11.2173 24.8807 12.2443 25.1705 13.4716 25.1705C14.554 25.1705 15.4531 25.0128 16.169 24.6974C16.8935 24.3821 17.4347 23.9347 17.7926 23.3551C18.1506 22.7756 18.3295 22.0937 18.3295 21.3097L19.5568 21.4375H13.5739V16.375H25.1818V20.0057C25.1818 22.392 24.6747 24.4332 23.6605 26.1293C22.6548 27.8168 21.2656 29.1122 19.4929 30.0156C17.7287 30.9105 15.7045 31.358 13.4205 31.358C10.8722 31.358 8.63494 30.8168 6.70881 29.7344C4.78267 28.652 3.27841 27.1094 2.19602 25.1065C1.12216 23.1037 0.585227 20.7216 0.585227 17.9602C0.585227 15.7955 0.913352 13.8778 1.5696 12.2074C2.23438 10.5369 3.15483 9.12642 4.33097 7.97585C5.5071 6.81676 6.86648 5.94318 8.40909 5.35511C9.95171 4.75852 11.6051 4.46023 13.3693 4.46023C14.9205 4.46023 16.3608 4.68182 17.6903 5.125C19.0284 5.55966 20.2088 6.18182 21.2315 6.99148C22.2628 7.79261 23.0938 8.7429 23.7244 9.84233C24.3551 10.9418 24.7386 12.1477 24.875 13.4602H17.6903ZM38.0586 31.358C35.9279 31.358 34.104 30.9361 32.587 30.0923C31.07 29.2401 29.9066 28.0554 29.0969 26.5384C28.2873 25.0128 27.8825 23.2443 27.8825 21.233C27.8825 19.2216 28.2873 17.4574 29.0969 15.9403C29.9066 14.4148 31.07 13.2301 32.587 12.3864C34.104 11.5341 35.9279 11.108 38.0586 11.108C40.1893 11.108 42.0131 11.5341 43.5302 12.3864C45.0472 13.2301 46.2106 14.4148 47.0202 15.9403C47.8299 17.4574 48.2347 19.2216 48.2347 21.233C48.2347 23.2443 47.8299 25.0128 47.0202 26.5384C46.2106 28.0554 45.0472 29.2401 43.5302 30.0923C42.0131 30.9361 40.1893 31.358 38.0586 31.358ZM38.1097 26.142C38.7063 26.142 39.2219 25.9418 39.6566 25.5412C40.0913 25.1406 40.4279 24.5696 40.6665 23.8281C40.9052 23.0866 41.0245 22.2045 41.0245 21.1818C41.0245 20.1506 40.9052 19.2685 40.6665 18.5355C40.4279 17.794 40.0913 17.223 39.6566 16.8224C39.2219 16.4219 38.7063 16.2216 38.1097 16.2216C37.479 16.2216 36.9379 16.4219 36.4862 16.8224C36.0344 17.223 35.6893 17.794 35.4506 18.5355C35.212 19.2685 35.0927 20.1506 35.0927 21.1818C35.0927 22.2045 35.212 23.0866 35.4506 23.8281C35.6893 24.5696 36.0344 25.1406 36.4862 25.5412C36.9379 25.9418 37.479 26.142 38.1097 26.142ZM62.8086 11.3636V16.4773H49.8711V11.3636H62.8086ZM52.3768 6.65909H59.4336V24.6847C59.4336 24.9574 59.4805 25.1875 59.5742 25.375C59.668 25.554 59.8129 25.6903 60.0089 25.7841C60.2049 25.8693 60.4563 25.9119 60.7631 25.9119C60.9762 25.9119 61.2234 25.8864 61.5046 25.8352C61.7944 25.7841 62.0075 25.7415 62.1438 25.7074L63.1665 30.6676C62.8512 30.7614 62.3995 30.8764 61.8114 31.0128C61.2319 31.1491 60.5415 31.2386 59.7404 31.2812C58.1211 31.3665 56.7617 31.2003 55.6623 30.7827C54.5629 30.3565 53.7362 29.6875 53.1822 28.7756C52.6282 27.8636 52.3597 26.7216 52.3768 25.3494V6.65909ZM98.3047 11.3636V16.4773H85.3672V11.3636H98.3047ZM87.8729 6.65909H94.9297V24.6847C94.9297 24.9574 94.9766 25.1875 95.0703 25.375C95.1641 25.554 95.3089 25.6903 95.505 25.7841C95.701 25.8693 95.9524 25.9119 96.2592 25.9119C96.4723 25.9119 96.7195 25.8864 97.0007 25.8352C97.2905 25.7841 97.5036 25.7415 97.6399 25.7074L98.6626 30.6676C98.3473 30.7614 97.8956 30.8764 97.3075 31.0128C96.728 31.1491 96.0376 31.2386 95.2365 31.2812C93.6172 31.3665 92.2578 31.2003 91.1584 30.7827C90.0589 30.3565 89.2322 29.6875 88.6783 28.7756C88.1243 27.8636 87.8558 26.7216 87.8729 25.3494V6.65909Z" fill="#2C3E50"/>
<path d="M81.5085 0.454545L80.733 21.4545H73.9318L73.1562 0.454545H81.5085ZM77.3324 31.4773C76.179 31.4773 75.1896 31.0746 74.3643 30.2692C73.549 29.4538 73.1463 28.4645 73.1562 27.3011C73.1463 26.1676 73.549 25.1982 74.3643 24.3928C75.1896 23.5874 76.179 23.1847 77.3324 23.1847C78.4261 23.1847 79.3906 23.5874 80.2259 24.3928C81.071 25.1982 81.4986 26.1676 81.5085 27.3011C81.4986 28.0767 81.2947 28.7827 80.897 29.419C80.5092 30.0455 80.0021 30.5476 79.3757 30.9254C78.7493 31.2933 78.0682 31.4773 77.3324 31.4773Z" fill="#2E86DE"/>
</svg>
