<svg width="20" height="20" viewBox="0 0 20 20" fill="none" xmlns="http://www.w3.org/2000/svg">
<path d="M7.42771 15.7391L14.0945 9.07229L10.9279 5.90567L4.2611 12.5725C4.16932 12.6644 4.10412 12.7794 4.07242 12.9054L3.3335 16.6667L7.09412 15.9278C7.22038 15.8962 7.33588 15.8309 7.42771 15.7391ZM16.2467 6.92008C16.5157 6.65101 16.6668 6.28613 16.6668 5.90567C16.6668 5.52521 16.5157 5.16033 16.2467 4.89127L15.1089 3.75347C14.8399 3.48448 14.475 3.33337 14.0945 3.33337C13.7141 3.33337 13.3492 3.48448 13.0801 3.75347L11.9423 4.89127L15.1089 8.05788L16.2467 6.92008Z" fill="#E8EDF1"/>
</svg>
