<svg width="24" height="24" viewBox="0 0 24 24" fill="none" xmlns="http://www.w3.org/2000/svg">
<path d="M5.97396 14.9761C6.84917 14.9711 7.69096 14.6394 8.33428 14.0459L14.5951 17.6264C14.5154 17.9027 14.475 18.1889 14.4751 18.4765C14.4687 19.2882 14.7421 20.0773 15.2494 20.7109C15.7567 21.3445 16.4668 21.784 17.2601 21.9554C18.0535 22.1267 18.8817 22.0195 19.6053 21.6517C20.3288 21.2839 20.9036 20.678 21.2327 19.936C21.5618 19.1941 21.6252 18.3614 21.4122 17.5781C21.1993 16.7949 20.7229 16.109 20.0634 15.6358C19.4039 15.1627 18.6014 14.9313 17.7913 14.9805C16.9811 15.0298 16.2126 15.3567 15.6153 15.9062L9.35441 12.3257C9.42997 12.0792 9.47038 11.8234 9.47443 11.5656L15.6253 8.04514C16.2194 8.58205 16.9801 8.89834 17.7797 8.94096C18.5794 8.98358 19.3694 8.74994 20.0173 8.27922C20.6651 7.8085 21.1314 7.12934 21.3379 6.35563C21.5444 5.58192 21.4786 4.76073 21.1516 4.02978C20.8245 3.29882 20.256 2.70256 19.5415 2.341C18.8269 1.97944 18.0098 1.87456 17.2272 2.04396C16.4445 2.21336 15.7438 2.64673 15.2428 3.27139C14.7417 3.89605 14.4707 4.67401 14.4751 5.47479C14.4785 5.76214 14.5188 6.04786 14.5951 6.32491L8.90435 9.57534C8.57462 9.06523 8.11782 8.6497 7.57886 8.36959C7.0399 8.08947 6.43733 7.95443 5.83037 7.97772C5.22341 8.001 4.63296 8.18183 4.11704 8.50241C3.60113 8.823 3.17752 9.27231 2.88784 9.80619C2.59816 10.3401 2.45239 10.9401 2.46485 11.5474C2.47731 12.1547 2.64757 12.7483 2.95891 13.2698C3.27024 13.7914 3.71193 14.2229 4.24056 14.5221C4.76919 14.8212 5.36656 14.9777 5.97396 14.9761ZM17.9756 16.9763C18.2723 16.9763 18.5623 17.0643 18.809 17.2292C19.0557 17.394 19.248 17.6283 19.3616 17.9024C19.4751 18.1766 19.5048 18.4782 19.4469 18.7692C19.3891 19.0602 19.2462 19.3275 19.0364 19.5373C18.8266 19.7471 18.5593 19.89 18.2682 19.9479C17.9772 20.0058 17.6756 19.9761 17.4015 19.8625C17.1273 19.749 16.893 19.5567 16.7282 19.31C16.5634 19.0633 16.4754 18.7732 16.4754 18.4765C16.4754 18.0787 16.6334 17.6971 16.9148 17.4157C17.1961 17.1344 17.5777 16.9763 17.9756 16.9763ZM17.9756 3.97459C18.2723 3.97459 18.5623 4.06258 18.809 4.22742C19.0557 4.39227 19.248 4.62657 19.3616 4.90069C19.4751 5.17482 19.5048 5.47646 19.4469 5.76747C19.3891 6.05848 19.2462 6.32579 19.0364 6.5356C18.8266 6.7454 18.5593 6.88828 18.2682 6.94617C17.9772 7.00405 17.6756 6.97435 17.4015 6.8608C17.1273 6.74725 16.893 6.55497 16.7282 6.30826C16.5634 6.06155 16.4754 5.77151 16.4754 5.47479C16.4754 5.07692 16.6334 4.69533 16.9148 4.41399C17.1961 4.13265 17.5777 3.97459 17.9756 3.97459ZM5.97396 9.9754C6.27067 9.9754 6.56072 10.0634 6.80743 10.2282C7.05414 10.3931 7.24642 10.6274 7.35997 10.9015C7.47351 11.1756 7.50322 11.4773 7.44534 11.7683C7.38745 12.0593 7.24457 12.3266 7.03476 12.5364C6.82496 12.7462 6.55765 12.8891 6.26664 12.947C5.97563 13.0049 5.67399 12.9751 5.39986 12.8616C5.12573 12.7481 4.89143 12.5558 4.72659 12.3091C4.56175 12.0624 4.47376 11.7723 4.47376 11.4756C4.47376 11.0777 4.63182 10.6961 4.91316 10.4148C5.1945 10.1335 5.57608 9.9754 5.97396 9.9754Z" fill="#4B5563"/>
</svg>
