<svg width="24" height="24" viewBox="0 0 24 24" fill="none" xmlns="http://www.w3.org/2000/svg">
<path d="M20 8.5H14.388L15.511 5.133C15.713 4.525 15.611 3.851 15.236 3.331C14.861 2.811 14.253 2.5 13.612 2.5H12C11.703 2.5 11.422 2.632 11.231 2.86L6.531 8.5H4C2.897 8.5 2 9.397 2 10.5V19.5C2 20.603 2.897 21.5 4 21.5H17.307C17.7139 21.4986 18.1108 21.3738 18.4452 21.1421C18.7796 20.9103 19.0359 20.5825 19.18 20.202L21.937 12.851C21.9789 12.7387 22.0002 12.6198 22 12.5V10.5C22 9.397 21.103 8.5 20 8.5ZM4 10.5H6V19.5H4V10.5ZM20 12.319L17.307 19.5H8V9.862L12.468 4.5H13.614L12.052 9.183C12.0013 9.33331 11.9871 9.49355 12.0107 9.65043C12.0343 9.8073 12.095 9.95629 12.1877 10.085C12.2803 10.2138 12.4024 10.3186 12.5436 10.3908C12.6849 10.4629 12.8414 10.5004 13 10.5H20V12.319Z" fill="#4B5563"/>
</svg>
