<svg width="26" height="25" viewBox="0 0 26 25" fill="none" xmlns="http://www.w3.org/2000/svg">
<path d="M3 24.25H4.25V8H3C2.33696 8 1.70107 8.26339 1.23223 8.73223C0.763392 9.20107 0.5 9.83696 0.5 10.5V21.75C0.5 22.413 0.763392 23.0489 1.23223 23.5178C1.70107 23.9866 2.33696 24.25 3 24.25ZM23 8H14.25L15.6525 3.79C15.7776 3.41427 15.8117 3.01418 15.752 2.62269C15.6922 2.23121 15.5403 1.85952 15.3087 1.53824C15.0772 1.21697 14.7726 0.955303 14.4201 0.774795C14.0676 0.594287 13.6773 0.500103 13.2812 0.5H13L6.75 7.2975V24.25H20.5L25.39 13.505L25.5 13V10.5C25.5 9.83696 25.2366 9.20107 24.7678 8.73223C24.2989 8.26339 23.663 8 23 8Z" fill="#2E86DE"/>
</svg>
