<svg width="24" height="24" viewBox="0 0 24 24" fill="none" xmlns="http://www.w3.org/2000/svg">
<path d="M19.8902 10.105C19.6741 9.59567 19.4099 9.10813 19.1012 8.649L17.4432 9.768C17.921 10.4783 18.2562 11.2748 18.4302 12.113C18.6074 12.9868 18.6074 13.8872 18.4302 14.761C18.3433 15.1831 18.2147 15.5954 18.0462 15.992C17.8823 16.3817 17.6804 16.7541 17.4432 17.104C16.9692 17.803 16.3664 18.4054 15.6672 18.879C14.9574 19.3566 14.1617 19.6918 13.3242 19.866C12.4508 20.041 11.5515 20.041 10.6782 19.866C9.42122 19.6078 8.26781 18.986 7.36115 18.078C6.76225 17.4787 6.28423 16.7699 5.95315 15.99C5.7861 15.5934 5.65816 15.1815 5.57115 14.76C5.30717 13.4586 5.44026 12.1079 5.95315 10.883C6.28296 10.1033 6.76077 9.39489 7.36015 8.797C7.95927 8.19911 8.66736 7.7215 9.44615 7.39C9.84115 7.223 10.2562 7.094 10.6762 7.008C10.7832 6.986 10.8922 6.976 11.0002 6.959V10L16.0002 6L11.0002 2V4.938C10.757 4.96491 10.5152 5.00195 10.2752 5.049C9.17931 5.27356 8.13847 5.71191 7.21215 6.339C5.56664 7.44902 4.35769 9.09605 3.7919 10.9986C3.22611 12.9012 3.3386 14.9412 4.11015 16.77C4.5397 17.7882 5.1629 18.7134 5.94515 19.494C6.72635 20.2737 7.6501 20.896 8.66615 21.327C10.2635 22.0028 12.0286 22.1768 13.7272 21.826C15.0868 21.545 16.3579 20.9381 17.4312 20.0574C18.5046 19.1767 19.348 18.0486 19.8892 16.77C20.1092 16.25 20.2782 15.709 20.3892 15.162C20.621 14.0237 20.621 12.8503 20.3892 11.712C20.2752 11.1614 20.1081 10.6233 19.8902 10.105Z" fill="#4B5563"/>
</svg>
